<?xml version="1.0" encoding="utf-8"?>
<!-- Generator: Adobe Illustrator 16.0.0, SVG Export Plug-In . SVG Version: 6.00 Build 0)  -->
<!DOCTYPE svg PUBLIC "-//W3C//DTD SVG 1.1//EN" "http://www.w3.org/Graphics/SVG/1.1/DTD/svg11.dtd">
<svg version="1.1" id="圖層_1" xmlns="http://www.w3.org/2000/svg" xmlns:xlink="http://www.w3.org/1999/xlink" x="0px" y="0px"
	 width="24.934px" height="24.934px" viewBox="0 0 24.934 24.934" enable-background="new 0 0 24.934 24.934" xml:space="preserve">
<g id="圖層_4" display="none">
</g>
<g id="圖層_11" display="none">
</g>
<g id="圖層_7" display="none">
</g>
<g id="圖層_3" display="none">
	<circle display="inline" fill="none" stroke="#E60012" stroke-miterlimit="10" cx="12.499" cy="12.24" r="12.5"/>
</g>
<g id="圖層_2">
</g>
<g id="圖層_5">
</g>
<g id="圖層_6">
</g>
<g id="圖層_8">
</g>
<g id="圖層_9">
	<g>
		<g>
			<path fill="#272727" stroke="#FFFFFF" stroke-width="0.75" stroke-linecap="round" stroke-miterlimit="10" d="M10.18,11.818
				c0.101-0.38,0.27-0.799,0.55-1.299c1.08-1.921,1.521-3.782,1.472-5.192c-0.078-2.143-0.512-3.573-1.893-3.573
				c0,0-1.711,0.42-2.972,2.041S5.086,7.427,5.206,9.648c0.037,0.687,0.089,1.27,0.14,1.801L10.18,11.818z"/>
			<path fill="#272727" stroke="#FFFFFF" stroke-width="0.75" stroke-linecap="round" stroke-miterlimit="10" d="M5.505,13.327
				c0.021,0.411,0.027,0.816,0.002,1.243c-0.091,1.502,0.209,3.754,1.83,3.844s2.852-1.621,2.852-3.422
				c0-0.506-0.041-0.925-0.078-1.313L5.505,13.327z"/>
		</g>
		<g>
			<path fill="#272727" stroke="#FFFFFF" stroke-width="0.75" stroke-linecap="round" stroke-miterlimit="10" d="M13.979,14.992
				c0.008-0.393-0.039-0.842-0.173-1.4c-0.515-2.143-0.428-4.054,0.007-5.396c0.66-2.04,1.47-3.296,2.797-2.919
				c0,0,1.53,0.873,2.3,2.777c0.77,1.903,1.172,4.108,0.446,6.212c-0.225,0.65-0.433,1.196-0.627,1.692L13.979,14.992z"/>
			<path fill="#272727" stroke="#FFFFFF" stroke-width="0.75" stroke-linecap="round" stroke-miterlimit="10" d="M18.063,17.722
				c-0.133,0.389-0.249,0.778-0.343,1.194c-0.324,1.472-1.229,3.554-2.812,3.195c-1.586-0.357-2.301-2.338-1.807-4.072
				c0.137-0.483,0.293-0.877,0.436-1.24L18.063,17.722z"/>
		</g>
	</g>
</g>
<g id="圖層_10">
</g>
<g id="圖層_12">
</g>
</svg>
