<?xml version="1.0" encoding="utf-8"?>
<!-- Generator: Adobe Illustrator 16.0.0, SVG Export Plug-In . SVG Version: 6.00 Build 0)  -->
<!DOCTYPE svg PUBLIC "-//W3C//DTD SVG 1.1//EN" "http://www.w3.org/Graphics/SVG/1.1/DTD/svg11.dtd">
<svg version="1.1" id="圖層_1" xmlns="http://www.w3.org/2000/svg" xmlns:xlink="http://www.w3.org/1999/xlink" x="0px" y="0px"
	 width="25.237px" height="25.237px" viewBox="27.863 0 25.237 25.237" enable-background="new 27.863 0 25.237 25.237"
	 xml:space="preserve">
<g id="圖層_5_1_">
	<g>
		<path fill="#FFFFFF" stroke="#272727" stroke-width="0.75" stroke-linecap="round" stroke-miterlimit="10" d="M48.6,12.821
			c-0.17,4.241-3.747,7.629-8.148,7.629c-4.194,0-7.646-3.076-8.11-7.035c-0.012,0.34-0.008,0.683,0.033,1.029
			c0.512,4.358,3.566,7.396,8.077,7.396c4.51,0,7.632-3.16,8.167-7.356C48.689,13.924,48.678,13.367,48.6,12.821z"/>
		
			<ellipse fill="#FFFFFF" stroke="#272727" stroke-width="0.75" stroke-linecap="round" stroke-miterlimit="10" cx="40.451" cy="12.508" rx="8.167" ry="7.942"/>
		<g>
			<path fill="#272727" d="M41.012,17.195h-1.123v-1.063c-0.884-0.018-1.725-0.345-2.258-0.574l0.502-0.824
				c0.533,0.221,1.116,0.488,1.974,0.488c1.107,0,1.733-0.336,1.733-0.882c0-0.554-0.52-0.896-1.797-1.266
				c-1.39-0.416-2.386-0.896-2.386-1.811c0-0.896,0.897-1.57,2.33-1.756V8.448h1.122v1.006c0.897,0.02,1.494,0.291,1.942,0.457
				l-0.39,0.825c-0.393-0.139-0.901-0.388-1.757-0.388c-1.039,0-1.663,0.353-1.663,0.768c0,0.518,0.632,0.794,1.811,1.173
				c1.602,0.473,2.399,0.979,2.399,1.94c0,0.906-0.884,1.663-2.441,1.848L41.012,17.195L41.012,17.195z"/>
		</g>
	</g>
</g>
</svg>
