<?xml version="1.0" encoding="utf-8"?>
<!-- Generator: Adobe Illustrator 16.0.0, SVG Export Plug-In . SVG Version: 6.00 Build 0)  -->
<!DOCTYPE svg PUBLIC "-//W3C//DTD SVG 1.1//EN" "http://www.w3.org/Graphics/SVG/1.1/DTD/svg11.dtd">
<svg version="1.1" xmlns="http://www.w3.org/2000/svg" xmlns:xlink="http://www.w3.org/1999/xlink" x="0px" y="0px"
	 width="24.779px" height="24.779px" viewBox="0 0 24.779 24.779" enable-background="new 0 0 24.779 24.779" xml:space="preserve">
<g id="圖層_4" display="none">
</g>
<g id="圖層_11" display="none">
	
		<rect x="-90.929" y="-30.307" display="inline" fill="#E83828" stroke="#3E3A39" stroke-miterlimit="10" width="101.5" height="85.04"/>
</g>
<g id="圖層_7" display="none">
</g>
<g id="圖層_3" display="none">
	<circle display="inline" fill="none" stroke="#E60012" stroke-miterlimit="10" cx="12.5" cy="12.5" r="12.5"/>
</g>
<g id="圖層_2">
</g>
<g id="圖層_5">
</g>
<g id="圖層_6">
</g>
<g id="圖層_8">
	<g>
		<path fill="none" stroke="#3E3A39" stroke-width="0.75" stroke-linecap="round" stroke-miterlimit="10" d="M17.945,9.77
			l2.092-1.662c-0.727-1.161-1.715-2.135-2.887-2.844l-1.639,2.063c-0.355-0.195-0.736-0.352-1.131-0.47l0.3-2.609
			c-0.656-0.157-1.337-0.25-2.042-0.25c-0.703,0-1.383,0.092-2.039,0.249L10.9,6.856c-0.402,0.121-0.785,0.282-1.146,0.479
			L8.115,5.272C6.946,5.984,5.959,6.959,5.236,8.121L7.33,9.784c-0.19,0.354-0.342,0.729-0.461,1.12l-2.684-0.309
			c-0.172,0.683-0.273,1.396-0.273,2.132c0,0.662,0.08,1.304,0.22,1.924l2.737-0.314c0.121,0.399,0.277,0.784,0.473,1.146
			l-2.18,1.729c0.711,1.184,1.69,2.181,2.859,2.913l1.752-2.208c0.361,0.197,0.746,0.354,1.15,0.475L10.6,21.206
			c0.656,0.156,1.336,0.249,2.039,0.249c0.705,0,1.386-0.093,2.041-0.249l-0.323-2.815c0.397-0.118,0.778-0.275,1.134-0.467
			l1.754,2.208c1.171-0.729,2.153-1.726,2.866-2.907l-2.179-1.73c0.199-0.363,0.359-0.751,0.479-1.157l2.738,0.314
			c0.14-0.62,0.22-1.262,0.22-1.924c0-0.737-0.101-1.449-0.273-2.132l-2.685,0.309C18.293,10.506,18.137,10.128,17.945,9.77z"/>
		
			<circle fill="none" stroke="#3E3A39" stroke-width="0.75" stroke-linecap="round" stroke-miterlimit="10" cx="12.64" cy="12.727" r="1.768"/>
	</g>
</g>
<g id="圖層_9">
</g>
<g id="圖層_10">
</g>
<g id="圖層_12">
</g>
</svg>
