<?xml version="1.0" encoding="utf-8"?>
<!-- Generator: Adobe Illustrator 16.0.0, SVG Export Plug-In . SVG Version: 6.00 Build 0)  -->
<!DOCTYPE svg PUBLIC "-//W3C//DTD SVG 1.1//EN" "http://www.w3.org/Graphics/SVG/1.1/DTD/svg11.dtd">
<svg version="1.1" id="圖層_1" xmlns="http://www.w3.org/2000/svg" xmlns:xlink="http://www.w3.org/1999/xlink" x="0px" y="0px"
	 width="24.934px" height="24.934px" viewBox="0 0 24.934 24.934" enable-background="new 0 0 24.934 24.934" xml:space="preserve">
<g id="圖層_4" display="none">
</g>
<g id="圖層_11" display="none">
</g>
<g id="圖層_7" display="none">
</g>
<g id="圖層_3" display="none">
	<circle display="inline" fill="none" stroke="#E60012" stroke-miterlimit="10" cx="12.499" cy="12.24" r="12.5"/>
</g>
<g id="圖層_2">
</g>
<g id="圖層_5">
</g>
<g id="圖層_6">
</g>
<g id="圖層_8">
</g>
<g id="圖層_9">
	<g>
		<g>
			<path fill="#272727" stroke="#FFFFFF" stroke-width="0.75" stroke-linecap="round" stroke-miterlimit="10" d="M33.117,12.88
				c0.101-0.38,0.271-0.799,0.55-1.299c1.08-1.921,1.521-3.782,1.473-5.191c-0.078-2.144-0.513-3.573-1.894-3.573
				c0,0-1.711,0.42-2.972,2.041s-2.251,3.632-2.131,5.853c0.037,0.688,0.089,1.271,0.14,1.801L33.117,12.88z"/>
			<path fill="#272727" stroke="#FFFFFF" stroke-width="0.75" stroke-linecap="round" stroke-miterlimit="10" d="M28.443,14.39
				c0.021,0.41,0.027,0.815,0.002,1.242c-0.091,1.502,0.209,3.754,1.83,3.845c1.621,0.09,2.852-1.621,2.852-3.422
				c0-0.507-0.041-0.926-0.078-1.313L28.443,14.39z"/>
		</g>
		<g>
			<path fill="#272727" stroke="#FFFFFF" stroke-width="0.75" stroke-linecap="round" stroke-miterlimit="10" d="M36.916,16.055
				c0.008-0.394-0.039-0.843-0.173-1.4c-0.515-2.144-0.428-4.054,0.007-5.396c0.66-2.04,1.471-3.296,2.797-2.919
				c0,0,1.53,0.873,2.301,2.777c0.77,1.903,1.172,4.108,0.445,6.212c-0.225,0.65-0.433,1.196-0.627,1.692L36.916,16.055z"/>
			<path fill="#272727" stroke="#FFFFFF" stroke-width="0.75" stroke-linecap="round" stroke-miterlimit="10" d="M41,18.784
				c-0.133,0.389-0.249,0.778-0.343,1.194c-0.324,1.472-1.229,3.554-2.812,3.194c-1.587-0.356-2.302-2.338-1.808-4.071
				c0.137-0.483,0.293-0.877,0.437-1.24L41,18.784z"/>
		</g>
	</g>
</g>
<g id="圖層_10">
</g>
<g id="圖層_12">
</g>
<circle fill="#1F2B65" cx="-12.824" cy="16" r="11.75"/>
<g>
	<path fill="#262626" stroke="#FFFFFF" stroke-width="0.75" stroke-miterlimit="10" d="M-53.769,22.781
		c0.083,0,0.122-0.023,0.154-0.102c0.572-1.381,1.751-4.199,1.776-4.252c0.545,1.738,1.084,3.453,1.631,5.197
		c0.479-0.986,0.947-1.947,1.424-2.93c0.02,0.051,0.463,1.369,0.67,1.998c0.02,0.055,0.037,0.088,0.107,0.088
		c1.5-0.002,4.039-0.002,5.463-0.004c0.561-1.023,0.82-2.192,0.658-3.763c-0.283-2.739-2.911-5.228-5.31-4.355
		c-1.938,0.705-2.521,1.72-3.622,3.399c-1.102-1.68-1.683-2.694-3.622-3.399c-2.399-0.872-5.026,1.616-5.31,4.355
		c-0.162,1.57,0.098,2.739,0.658,3.765C-57.688,22.78-55.215,22.78-53.769,22.781z"/>
	<path fill="#262626" stroke="#FFFFFF" stroke-width="0.75" stroke-miterlimit="10" d="M-48.58,23.627
		c-0.086,0-0.123-0.025-0.148-0.107c-0.058-0.193-0.126-0.383-0.197-0.6c-0.486,1.002-0.963,1.98-1.449,2.98
		c-0.527-1.678-1.048-3.336-1.576-5.018c-0.045,0.104-0.776,1.852-1.103,2.645c-0.031,0.076-0.068,0.1-0.148,0.098
		c-1.422,0-3.771,0-5.336,0.002c0.775,1.031,1.855,1.977,3.095,3.15c1.886,1.783,3.042,2.602,4.626,3.916
		c1.584-1.314,2.741-2.133,4.627-3.916c1.24-1.176,2.322-2.121,3.098-3.154C-44.689,23.625-47.113,23.625-48.58,23.627z"/>
</g>
<g>
	<path fill-rule="evenodd" clip-rule="evenodd" fill="#262626" stroke="#FFFFFF" stroke-width="0.2" stroke-miterlimit="10" d="
		M-41.494,23.621c-0.039,0.004-4.764,0.002-7.086,0.006c-0.086,0-0.123-0.025-0.148-0.107c-0.058-0.193-0.126-0.383-0.197-0.6
		c-0.486,1.002-0.963,1.98-1.449,2.98c-0.527-1.678-1.048-3.336-1.576-5.018c-0.045,0.104-0.776,1.852-1.103,2.645
		c-0.031,0.076-0.068,0.1-0.148,0.098c-2.269-0.002-6.893,0.004-6.937,0.006c0-0.285,0-0.568,0-0.854c0.03,0,4.277,0.002,6.37,0.004
		c0.083,0,0.122-0.023,0.154-0.102c0.572-1.381,1.751-4.199,1.776-4.252c0.545,1.738,1.084,3.453,1.631,5.197
		c0.479-0.986,0.947-1.947,1.424-2.93c0.02,0.051,0.463,1.369,0.67,1.998c0.02,0.055,0.037,0.088,0.107,0.088
		c2.168-0.002,6.509-0.004,6.512-0.004C-41.494,23.055-41.494,23.344-41.494,23.621z"/>
</g>
<path fill="none" stroke="#A39B86" stroke-width="0.75" stroke-miterlimit="10" d="M21.178,9.478
	c-0.27-2.608-2.641-4.404-5.057-4.147c-1.675,0.178-2.399,0.919-3.449,2.518c-1.049-1.599-1.622-2.36-3.449-2.518
	C6.802,5.122,4.437,6.87,4.168,9.478c-0.365,3.526,1.503,4.936,4.099,7.391c1.796,1.699,2.897,2.479,4.406,3.729
	c1.509-1.25,2.61-2.029,4.406-3.729C19.674,14.414,21.543,13.004,21.178,9.478z"/>
<polyline fill="none" stroke="#A39B86" stroke-width="0.75" stroke-miterlimit="10" points="3.799,13.826 10.239,13.826 
	11.647,10.445 13.176,15.315 14.545,12.498 14.988,13.826 21.547,13.826 "/>
</svg>
