<?xml version="1.0" encoding="utf-8"?>
<!-- Generator: Adobe Illustrator 16.0.0, SVG Export Plug-In . SVG Version: 6.00 Build 0)  -->
<!DOCTYPE svg PUBLIC "-//W3C//DTD SVG 1.1//EN" "http://www.w3.org/Graphics/SVG/1.1/DTD/svg11.dtd">
<svg version="1.1" xmlns="http://www.w3.org/2000/svg" xmlns:xlink="http://www.w3.org/1999/xlink" x="0px" y="0px"
	 width="25.184px" height="25.182px" viewBox="0 0 25.184 25.182" enable-background="new 0 0 25.184 25.182" xml:space="preserve">
<g id="圖層_2_1_" display="none">
	<rect x="1.925" y="1.258" display="inline" fill="#00FFB8" width="21.333" height="21.792"/>
</g>
<g id="圖層_1">
	<g>
		<path fill="#272727" d="M15.393,15.848c1.224-1.042,2.021-2.549,2.244-4.285c0.056-0.439,0.048-0.878-0.015-1.308
			c-0.104,2.565-1.813,4.729-4.188,5.593H15.393z"/>
		<path fill="#272727" d="M11.895,16.209c-0.244,0.025-0.491,0.044-0.743,0.044c-3.329,0-6.069-2.418-6.438-5.531
			c-0.01,0.267-0.006,0.536,0.026,0.809c0.406,3.428,2.832,5.817,6.412,5.817c0.254,0,0.5-0.016,0.743-0.041V16.209z"/>
	</g>
	<path fill="#272727" stroke="#FFFFFF" stroke-width="0.75" stroke-miterlimit="10" d="M11.895,15.848h1.539
		c2.454-0.89,4.203-3.165,4.203-5.84c0-3.449-2.904-6.245-6.485-6.245c-3.58,0-6.483,2.795-6.483,6.245s2.903,6.245,6.483,6.245
		c0.252,0,0.499-0.018,0.743-0.044V15.848z"/>
	<g id="圖層_4" display="none">
	</g>
	<g id="圖層_11" display="none">
	</g>
	<g id="圖層_7" display="none">
	</g>
	<g id="圖層_3" display="none">
		<circle display="inline" fill="none" stroke="#E60012" stroke-miterlimit="10" cx="12.5" cy="12.5" r="12.5"/>
	</g>
	<g id="圖層_2">
	</g>
	<g id="圖層_5">
	</g>
	<g>
		<path fill="#FFFFFF" d="M11.598,13.694h-0.893v-0.835c-0.702-0.015-1.369-0.271-1.792-0.453l0.398-0.646
			c0.423,0.174,0.886,0.384,1.565,0.384c0.879,0,1.377-0.264,1.377-0.691c0-0.438-0.413-0.706-1.427-0.996
			C9.725,10.127,8.934,9.75,8.934,9.031c0-0.704,0.714-1.234,1.851-1.381V6.815h0.893v0.792c0.713,0.016,1.187,0.229,1.543,0.359
			l-0.312,0.648c-0.312-0.108-0.715-0.305-1.394-0.305c-0.825,0-1.321,0.276-1.321,0.604c0,0.406,0.502,0.625,1.438,0.922
			c1.271,0.371,1.905,0.771,1.905,1.524c0,0.713-0.702,1.31-1.938,1.454L11.598,13.694L11.598,13.694z"/>
	</g>
	<g id="圖層_8">
	</g>
	<g id="圖層_9">
	</g>
	<g id="圖層_10">
	</g>
	<g id="圖層_12">
	</g>
	<polygon fill="#272727" stroke="#FFFFFF" stroke-width="0.75" stroke-linecap="round" stroke-miterlimit="10" points="
		21.684,17.349 17.883,13.903 17.883,15.848 11.895,15.848 11.895,18.704 17.883,18.704 17.883,20.794 	"/>
</g>
</svg>
