<?xml version="1.0" encoding="utf-8"?>
<!-- Generator: Adobe Illustrator 16.0.0, SVG Export Plug-In . SVG Version: 6.00 Build 0)  -->
<!DOCTYPE svg PUBLIC "-//W3C//DTD SVG 1.1//EN" "http://www.w3.org/Graphics/SVG/1.1/DTD/svg11.dtd">
<svg version="1.1" id="圖層_1" xmlns="http://www.w3.org/2000/svg" xmlns:xlink="http://www.w3.org/1999/xlink" x="0px" y="0px"
	 width="25.225px" height="25.225px" viewBox="0 0 25.225 25.225" enable-background="new 0 0 25.225 25.225" xml:space="preserve">
<g id="圖層_3" display="none">
	<circle display="inline" fill="none" stroke="#E60012" stroke-miterlimit="10" cx="12.5" cy="13.181" r="12.5"/>
</g>
<g id="圖層_5">
	<g>
		<path fill="none" stroke="#A39B86" stroke-width="0.75" stroke-miterlimit="10" d="M20.738,12.821
			c-0.17,4.241-3.746,7.63-8.147,7.63c-4.194,0-7.646-3.076-8.11-7.035c-0.012,0.34-0.008,0.683,0.033,1.028
			c0.512,4.358,3.566,7.396,8.077,7.396c4.51,0,7.632-3.16,8.167-7.356C20.826,13.924,20.816,13.367,20.738,12.821z"/>
		
			<ellipse fill="none" stroke="#A39B86" stroke-width="0.75" stroke-miterlimit="10" cx="12.589" cy="12.508" rx="8.167" ry="7.942"/>
		<g>
			<path fill="#A39B86" d="M13.15,17.195h-1.123v-1.063c-0.884-0.019-1.725-0.345-2.258-0.574l0.502-0.824
				c0.533,0.222,1.116,0.488,1.975,0.488c1.106,0,1.732-0.336,1.732-0.882c0-0.554-0.52-0.896-1.797-1.267
				c-1.39-0.415-2.386-0.896-2.386-1.811c0-0.896,0.896-1.57,2.33-1.756v-1.06h1.122v1.007c0.896,0.02,1.494,0.291,1.941,0.457
				l-0.39,0.824c-0.394-0.139-0.901-0.388-1.757-0.388c-1.039,0-1.663,0.354-1.663,0.769c0,0.518,0.632,0.794,1.811,1.173
				c1.603,0.473,2.399,0.979,2.399,1.939c0,0.906-0.884,1.663-2.441,1.849L13.15,17.195L13.15,17.195z"/>
		</g>
	</g>
</g>
</svg>
