<?xml version="1.0" encoding="utf-8"?>
<!-- Generator: Adobe Illustrator 16.0.0, SVG Export Plug-In . SVG Version: 6.00 Build 0)  -->
<!DOCTYPE svg PUBLIC "-//W3C//DTD SVG 1.1//EN" "http://www.w3.org/Graphics/SVG/1.1/DTD/svg11.dtd">
<svg version="1.1" xmlns="http://www.w3.org/2000/svg" xmlns:xlink="http://www.w3.org/1999/xlink" x="0px" y="0px"
	 width="25.059px" height="25.058px" viewBox="0 0 25.059 25.058" enable-background="new 0 0 25.059 25.058" xml:space="preserve">
<g id="圖層_4" display="none">
</g>
<g id="圖層_11" display="none">
	
		<rect x="-67.451" y="-42.78" display="inline" fill="#E83828" stroke="#3E3A39" stroke-miterlimit="10" width="101.501" height="85.04"/>
</g>
<g id="圖層_7" display="none">
</g>
<g id="圖層_3" display="none">
	<circle display="inline" fill="none" stroke="#E60012" stroke-miterlimit="10" cx="12.499" cy="12.24" r="12.5"/>
</g>
<g id="圖層_2">
</g>
<g id="圖層_5">
</g>
<g id="圖層_6">
</g>
<g id="圖層_8">
</g>
<g id="圖層_9">
</g>
<g id="圖層_10">
	<g>
		<path fill="#3E3A39" stroke="#FFFFFF" stroke-width="0.25" stroke-linejoin="round" stroke-miterlimit="10" d="M17.703,10.906
			c-0.379,0.313-0.896,0.508-1.469,0.508c-0.792,0-1.473-0.375-1.831-0.921c-0.357,0.546-1.039,0.921-1.831,0.921
			c-0.791,0-1.473-0.375-1.83-0.92c-0.357,0.545-1.039,0.92-1.831,0.92c-0.576,0-1.098-0.198-1.477-0.515c0,0,0.001,0,0.001,0.001
			c-0.361,0.302-0.848,0.493-1.393,0.507v1.656v3.782v1.969h12.972v-1.969v-3.782v-1.662C18.504,11.371,18.048,11.19,17.703,10.906z
			"/>
		
			<rect x="5.007" y="18.814" fill="#3E3A39" stroke="#FFFFFF" stroke-width="0.25" stroke-linejoin="round" stroke-miterlimit="10" width="15.045" height="1.174"/>
		
			<rect x="14.367" y="13.976" fill="#3E3A39" stroke="#FFFFFF" stroke-width="0.25" stroke-linejoin="round" stroke-miterlimit="10" width="2.61" height="4.838"/>
		
			<rect x="8.04" y="13.027" fill="#3E3A39" stroke="#FFFFFF" stroke-width="0.25" stroke-linejoin="round" stroke-miterlimit="10" width="4.489" height="3.601"/>
		<g>
			<path fill="#3E3A39" stroke="#FFFFFF" stroke-width="0.25" stroke-linejoin="round" stroke-miterlimit="10" d="M6.776,9.643
				c0-0.168,0.036-0.326,0.088-0.48H3.932c-0.051,0.154-0.088,0.313-0.088,0.48c0,0.979,0.94,1.771,2.1,1.771
				c0.57,0,1.08-0.2,1.456-0.514C7.016,10.579,6.776,10.136,6.776,9.643z"/>
			<g>
				
					<polygon fill="#3E3A39" stroke="#FFFFFF" stroke-width="0.25" stroke-linecap="square" stroke-linejoin="round" stroke-miterlimit="10" points="
					18.94,5.07 6.133,5.07 3.932,9.162 21.143,9.162 				"/>
				<g>
					
						<polygon fill="#3E3A39" stroke="#FFFFFF" stroke-width="0.25" stroke-linecap="square" stroke-linejoin="round" stroke-miterlimit="10" points="
						8.251,5.07 6.776,9.162 10.457,9.162 10.989,5.07 					"/>
					
						<polygon fill="#3E3A39" stroke="#FFFFFF" stroke-width="0.25" stroke-linecap="square" stroke-linejoin="round" stroke-miterlimit="10" points="
						16.822,5.07 14.084,5.07 14.617,9.162 18.298,9.162 					"/>
				</g>
			</g>
			<path fill="#3E3A39" stroke="#FFFFFF" stroke-width="0.25" stroke-linejoin="round" stroke-miterlimit="10" d="M21.127,9.162
				H18.21c0.051,0.154,0.088,0.313,0.088,0.48c0,0.495-0.242,0.942-0.631,1.264c0.376,0.31,0.881,0.508,1.448,0.508
				c1.159,0,2.1-0.793,2.1-1.771C21.215,9.475,21.178,9.316,21.127,9.162z"/>
			<path fill="#3E3A39" stroke="#FFFFFF" stroke-width="0.25" stroke-linejoin="round" stroke-miterlimit="10" d="M10.525,9.162
				c-0.051,0.154-0.088,0.313-0.088,0.48c0,0.979,0.94,1.771,2.099,1.771c1.16,0,2.101-0.793,2.101-1.771
				c0-0.168-0.037-0.326-0.089-0.48H10.525z"/>
			<path fill="#3E3A39" stroke="#FFFFFF" stroke-width="0.25" stroke-linejoin="round" stroke-miterlimit="10" d="M10.438,9.643
				c0-0.168,0.037-0.326,0.088-0.48H6.864c-0.052,0.154-0.088,0.313-0.088,0.48c0,0.979,0.94,1.771,2.099,1.771
				c0.792,0,1.474-0.375,1.831-0.92C10.54,10.24,10.438,9.953,10.438,9.643z"/>
			<path fill="#3E3A39" stroke="#FFFFFF" stroke-width="0.25" stroke-linejoin="round" stroke-miterlimit="10" d="M18.21,9.162
				h-3.662c0.052,0.154,0.089,0.313,0.089,0.48c0,0.311-0.103,0.598-0.27,0.851c0.358,0.546,1.039,0.921,1.831,0.921
				c1.159,0,2.1-0.793,2.1-1.771C18.298,9.475,18.261,9.316,18.21,9.162z"/>
		</g>
	</g>
</g>
<g id="圖層_12">
</g>
</svg>
