<?xml version="1.0" encoding="utf-8"?>
<!-- Generator: Adobe Illustrator 16.0.0, SVG Export Plug-In . SVG Version: 6.00 Build 0)  -->
<!DOCTYPE svg PUBLIC "-//W3C//DTD SVG 1.1//EN" "http://www.w3.org/Graphics/SVG/1.1/DTD/svg11.dtd">
<svg version="1.1" xmlns="http://www.w3.org/2000/svg" xmlns:xlink="http://www.w3.org/1999/xlink" x="0px" y="0px"
	 width="25.225px" height="25.224px" viewBox="0 0 25.225 25.224" enable-background="new 0 0 25.225 25.224" xml:space="preserve">
<g id="圖層_4" display="none">
</g>
<g id="圖層_11" display="none">
</g>
<g id="圖層_7" display="none">
</g>
<g id="圖層_3" display="none">
	<circle display="inline" fill="none" stroke="#E60012" stroke-miterlimit="10" cx="12.5" cy="13.181" r="12.5"/>
</g>
<g id="圖層_2">
</g>
<g id="圖層_5">
	<g>
		<path fill="none" stroke="#3E3A39" stroke-width="0.75" stroke-linecap="round" stroke-miterlimit="10" d="M20.738,12.821
			c-0.17,4.241-3.748,7.629-8.149,7.629c-4.194,0-7.646-3.076-8.11-7.035c-0.012,0.34-0.008,0.682,0.033,1.029
			c0.512,4.358,3.566,7.397,8.077,7.397c4.51,0,7.632-3.161,8.167-7.357C20.826,13.924,20.816,13.367,20.738,12.821z"/>
		
			<ellipse fill="none" stroke="#3E3A39" stroke-width="0.75" stroke-linecap="round" stroke-miterlimit="10" cx="12.589" cy="12.508" rx="8.167" ry="7.942"/>
		<g>
			<path fill="#3E3A39" d="M13.15,17.195h-1.123v-1.062c-0.884-0.018-1.725-0.345-2.258-0.575l0.502-0.824
				c0.533,0.221,1.116,0.488,1.973,0.488c1.108,0,1.734-0.336,1.734-0.881c0-0.554-0.52-0.896-1.797-1.266
				c-1.39-0.416-2.386-0.896-2.386-1.811c0-0.896,0.898-1.57,2.33-1.755V8.448h1.122v1.006c0.898,0.019,1.494,0.291,1.943,0.457
				l-0.39,0.825c-0.393-0.139-0.901-0.388-1.757-0.388c-1.039,0-1.663,0.353-1.663,0.768c0,0.518,0.632,0.794,1.811,1.173
				c1.601,0.472,2.399,0.979,2.399,1.94c0,0.906-0.884,1.663-2.441,1.848V17.195z"/>
		</g>
	</g>
</g>
<g id="圖層_6">
</g>
<g id="圖層_8">
</g>
<g id="圖層_9">
</g>
<g id="圖層_10">
</g>
<g id="圖層_12">
</g>
</svg>
