<?xml version="1.0" encoding="utf-8"?>
<!-- Generator: Adobe Illustrator 16.0.0, SVG Export Plug-In . SVG Version: 6.00 Build 0)  -->
<!DOCTYPE svg PUBLIC "-//W3C//DTD SVG 1.1//EN" "http://www.w3.org/Graphics/SVG/1.1/DTD/svg11.dtd">
<svg version="1.1" xmlns="http://www.w3.org/2000/svg" xmlns:xlink="http://www.w3.org/1999/xlink" x="0px" y="0px" width="500px"
	 height="500px" viewBox="0 0 500 500" enable-background="new 0 0 500 500" xml:space="preserve">
<g id="圖層_1">
	<g>
		<rect x="261.167" y="249.668" fill="#A29A85" width="89.832" height="140.664"/>
		<rect x="142.333" y="249.668" fill="#A29A85" width="89.833" height="140.664"/>
	</g>
	<g>
		<rect x="128.999" y="194.526" fill="#A29A85" width="103.166" height="49.333"/>
		<rect x="261.167" y="194.526" fill="#A29A85" width="103.165" height="49.333"/>
	</g>
	<path fill="#A29A85" d="M247.334,191.537c0,0-34.672-76.353-60.415-76.685c-21.033-0.271-34.888,22.204-31.665,36.562
		C161.567,179.548,247.334,191.537,247.334,191.537z M246.281,190.777c0,0-40.606-15.321-47.115-29.61
		c-3.323-7.292-5.482-27.896,3.167-24.833C212.919,140.083,246.281,190.777,246.281,190.777z"/>
	<path fill="#A29A85" d="M339.414,151.414c3.223-14.358-10.632-36.833-31.665-36.562c-25.743,0.332-60.415,76.685-60.415,76.685
		S333.101,179.548,339.414,151.414z M292.334,136.333c8.65-3.063,6.49,17.542,3.168,24.833c-6.51,14.289-47.115,29.61-47.115,29.61
		S281.748,140.083,292.334,136.333z"/>
</g>
<g id="圖層_2">
</g>
</svg>
